{"title":"Linkin Park - Powerless(OST-Abraham Lincoln-Vampire Hunter) 720P","uid":7447144,"size":29247230,"categoryP":"video","categoryS":"music_videos","magnet":"?xt=urn:btih:2be84922e9142729ec5fe2e82e5495cffe234816&amp;dn=Linkin+Park+-+Powerless%28OST-Abraham+Lincoln-Vampire+Hunter%29+720P&amp;tr=udp%3A%2F%2Ftracker.openbittorrent.com%3A80&amp;tr=udp%3A%2F%2Fopen.demonii.com%3A1337&amp;tr=udp%3A%2F%2Ftracker.coppersurfer.tk%3A6969&amp;tr=udp%3A%2F%2Fexodus.desync.com%3A6969","seeders":1,"leechers":6,"uploader":"sameer_ecs","files":5,"time":1342399020,"description":"General\nID : 1 (0x1)\nComplete name : Linkin Park - Powerless(OST-Abraham Lincoln-Vampire Hunter) 720PHD {ECS}.m2ts\nFormat : BDAV\nFormat/Info : Blu-ray Video\nFile size : 27.7 MiB\nDuration : 3mn 3s\nOverall bit rate mode : Variable\nOverall bit rate : 1 267 Kbps\nMaximum Overall bit rate : 35.5 Mbps\n\nVideo\nID : 4113 (0x1011)\nMenu ID : 1 (0x1)\nFormat : AVC\nFormat/Info : Advanced Video Codec\nFormat profile : &lt;a class=&quot;__cf_email__&quot; href=&quot;/cdn-cgi/l/email-protection&quot; data-cfemail=&quot;bdf5d4dad5fdf18e938c&quot;&gt;[email&amp;#160;protected]&lt;/a&gt;&lt;script cf-hash='f9e31' type=&quot;text/javascript&quot;&gt;\n/* &lt;![CDATA[ */!function(){try{var t=&quot;currentScript&quot;in document?document.currentScript:function(){for(var t=document.getElementsByTagName(&quot;script&quot;),e=t.length;e--;)if(t[e].getAttribute(&quot;cf-hash&quot;))return t[e]}();if(t&amp;&amp;t.previousSibling){var e,r,n,i,c=t.previousSibling,a=c.getAttribute(&quot;data-cfemail&quot;);if(a){for(e=&quot;&quot;,r=parseInt(a.substr(0,2),16),n=2;a.length-n;n+=2)i=parseInt(a.substr(n,2),16)^r,e+=String.fromCharCode(i);e=document.createTextNode(e),c.parentNode.replaceChild(e,c)}}}catch(u){}}();/* ]]&gt; */&lt;/script&gt;\nFormat settings, CABAC : Yes\nFormat settings, ReFrames : 5 frames\nCodec ID : 27\nDuration : 3mn 3s\nBit rate mode : Variable\nBit rate : 824 Kbps\nNominal bit rate : 734 Kbps\nMaximum bit rate : 40.0 Mbps\nWidth : 1 280 pixels\nHeight : 528 pixels\nDisplay aspect ratio : 2.40:1\nFrame rate : 24.000 fps\nColor space : YUV\nChroma subsampling : 4:2:0\nBit depth : 8 bits\nScan type : Progressive\nBits/(Pixel*Frame) : 0.051\nStream size : 18.0 MiB (65%)\nWriting library : x264 core 125 r2200 999b753\n\nAudio\nID : 4352 (0x1100)\nMenu ID : 1 (0x1)\nFormat : AC-3\nFormat/Info : Audio Coding 3\nMode extension : CM (complete main)\nFormat settings, Endianness : Big\nCodec ID : 129\nDuration : 3mn 3s\nBit rate mode : Constant\nBit rate : 384 Kbps\nChannel(s) : 2 channels\nChannel positions : Front: L R\nSampling rate : 44.1 KHz\nBit depth : 16 bits\nCompression mode : Lossy\nStream size : 8.40 MiB (30%","torrent":{"xt":"urn:btih:2be84922e9142729ec5fe2e82e5495cffe234816","amp;dn":"Linkin+Park+-+Powerless%28OST-Abraham+Lincoln-Vampire+Hunter%29+720P","amp;tr":["udp%3A%2F%2Ftracker.openbittorrent.com%3A80","udp%3A%2F%2Fopen.demonii.com%3A1337","udp%3A%2F%2Ftracker.coppersurfer.tk%3A6969","udp%3A%2F%2Fexodus.desync.com%3A6969"],"infoHash":"2be84922e9142729ec5fe2e82e5495cffe234816","infoHashBuffer":{"type":"Buffer","data":[43,232,73,34,233,20,39,41,236,95,226,232,46,84,149,207,254,35,72,22]},"announce":[],"urlList":[]}}